<?xml version="1.0" encoding="UTF-8"?>
<svg width="85px" height="37px" viewBox="0 0 85 37" version="1.1" xmlns="http://www.w3.org/2000/svg" xmlns:xlink="http://www.w3.org/1999/xlink">
    <!-- Generator: Sketch 42 (36781) - http://www.bohemiancoding.com/sketch -->
    <title>armor</title>
    <desc>Created with Sketch.</desc>
    <defs></defs>
    <g id="Page-1" stroke="none" stroke-width="1" fill="none" fill-rule="evenodd">
        <g id="Desktop-HD-Copy-4" transform="translate(-896.000000, -1069.000000)" fill="#444444">
            <g id="armor" transform="translate(896.000000, 1069.000000)">
                <path d="M31.5461044,22.2841843 L28.229101,19.3598029 L28.229101,17.7485211 L30.8031414,17.7485211 C31.6846229,17.7485211 32.1313737,17.4047309 32.1313737,16.7266762 C32.1313737,16.0486216 31.6846229,15.7048314 30.8031414,15.7048314 L26.0042189,15.7048314 L26.0042189,22.2841843 L24.3030741,22.2841843 L24.3030741,14.1062504 L30.74533,14.1062504 C33.3253805,14.1062504 33.8674343,15.5313487 33.8674343,16.7266762 C33.8674343,18.8436847 32.1820303,19.2882161 30.7685118,19.2882161 L30.5990842,19.2882161 L34.1756667,22.2841843 L31.5461044,22.2841843 Z M15.9335791,20.0023528 L16.7801448,18.4291736 L18.0663064,18.4291736 L16.5011044,15.5723379 L12.8300774,22.2841843 L10.8682088,22.2841843 L15.5128721,14.1062504 L17.5010707,14.1062504 L22.1460202,22.2841843 L20.1844377,22.2841843 L18.9306162,20.0023528 L15.9335791,20.0023528 Z M38.2917273,22.2841843 L36.5905825,22.2841843 L36.5905825,14.1062504 L38.3037475,14.1062504 L41.5417609,17.9996524 L41.5417609,0.28854127 L-5.72390563e-05,0.28854127 L-5.72390563e-05,36.1122851 L41.5417609,36.1122851 L41.5417609,20.2967827 L38.2917273,16.3545977 L38.2917273,22.2841843 Z" id="Fill-7"></path>
                <path d="M77.3517172,15.4215437 L77.1124579,15.4215437 L77.1124579,14.5472024 L76.8328451,15.1080625 L76.6121886,15.1080625 L76.3322896,14.5472024 L76.3322896,15.4215437 L76.0933165,15.4215437 L76.0933165,14.0833311 L76.3322896,14.0833311 L76.7209428,14.8448075 L77.1124579,14.0833311 L77.3517172,14.0833311 L77.3517172,15.4215437 Z M75.8723737,14.2995349 L75.515202,14.2995349 L75.515202,15.4215437 L75.2790909,15.4215437 L75.2790909,14.2995349 L74.9247811,14.2995349 L74.9247811,14.0833311 L75.8723737,14.0833311 L75.8723737,14.2995349 Z M71.3799663,22.2840688 L68.0626768,19.3596875 L68.0626768,17.7486942 L70.6370034,17.7486942 C71.5181987,17.7486942 71.9652357,17.4049041 71.9652357,16.7265608 C71.9652357,16.0485061 71.5181987,15.7047159 70.6370034,15.7047159 L65.8380808,15.7047159 L65.8380808,22.2840688 L64.1366498,22.2840688 L64.1366498,14.1064236 L70.5789057,14.1064236 C73.1592424,14.1064236 73.7010101,15.5312332 73.7010101,16.7265608 C73.7010101,18.8435692 72.0156061,19.2881006 70.6020875,19.2881006 L70.4326599,19.2881006 L74.0092424,22.2840688 L71.3799663,22.2840688 Z M60.2801684,21.2376882 C59.3217003,22.037556 57.9136195,22.4604381 56.2078956,22.4604381 C54.5024579,22.4604381 53.0935185,22.037556 52.1356229,21.2376882 C51.2326768,20.4848714 50.7555892,19.4327176 50.7555892,18.1952462 C50.7555892,16.9574861 51.2326768,15.9053324 52.1356229,15.1525156 C53.0935185,14.3529364 54.5018855,13.9300543 56.2078956,13.9300543 C57.9136195,13.9300543 59.3217003,14.3529364 60.2801684,15.1525156 C61.1828283,15.9053324 61.6599158,16.9574861 61.6599158,18.1952462 C61.6599158,19.4327176 61.1828283,20.4848714 60.2801684,21.2376882 L60.2801684,21.2376882 Z M46.5851515,16.3544822 L43.3351178,20.2966672 L43.3351178,36.1121696 L84.876936,36.1121696 L84.876936,0.288714464 L43.3351178,0.288714464 L43.3351178,17.9992483 L46.5728451,14.1064236 L48.2862963,14.1064236 L48.2862963,22.2840688 L46.5851515,22.2840688 L46.5851515,16.3544822 Z" id="Fill-10"></path>
                <path d="M56.2079242,15.5283755 C53.8465269,15.5283755 52.4922508,16.5002827 52.4922508,18.1952751 C52.4922508,19.8899788 53.8465269,20.8621746 56.2079242,20.8621746 C58.5690354,20.8621746 59.9233114,19.8899788 59.9233114,18.1952751 C59.9233114,16.5002827 58.5690354,15.5283755 56.2079242,15.5283755" id="Fill-13"></path>
            </g>
        </g>
    </g>
</svg>