<?xml version="1.0" encoding="UTF-8"?>
<svg width="32px" height="46px" viewBox="0 0 32 46" version="1.1" xmlns="http://www.w3.org/2000/svg" xmlns:xlink="http://www.w3.org/1999/xlink">
    <!-- Generator: Sketch 42 (36781) - http://www.bohemiancoding.com/sketch -->
    <title>design_inc</title>
    <desc>Created with Sketch.</desc>
    <defs></defs>
    <g id="Page-1" stroke="none" stroke-width="1" fill="none" fill-rule="evenodd">
        <g id="Desktop-HD-Copy-4" transform="translate(-196.000000, -1065.000000)" fill="#444444">
            <path d="M205.532489,1065 L199.051477,1068.72658 L198.322363,1068.99662 L198.160338,1069.23966 L197.485232,1070.29013 L196,1090.78903 L197.352911,1103.82937 L198.94346,1107.82869 L198.94346,1107.98802 L203.480169,1110.52911 L203.696203,1110.52911 L216.712236,1104.93924 L227.783966,1096.51122 L228,1096.51122 L228,1079.04219 L227.864979,1078.93418 L217.471055,1070.53316 L205.748523,1065.13232 L205.532489,1065 Z M199.159494,1069.72574 L205.478481,1066.10717 L212.553586,1070.88692 L218.521519,1074.90785 L209.691139,1091.46143 L202.021941,1091.46143 L199.159494,1069.72574 Z M219.412658,1074.39477 L210.420253,1068.31882 L210.123207,1068.13249 L216.955274,1071.29198 L223.490295,1076.69283 L219.412658,1074.39477 Z M198.268354,1103.72405 L196.945148,1090.89435 L198.376371,1070.94093 L201.076793,1091.92051 L199.132489,1106.07342 L198.268354,1103.72405 Z M212.094515,1094.89367 L210.501266,1091.92051 L219.412658,1075.36692 L227.243882,1079.58228 L227.243882,1095.78481 L218.818565,1100.1865 L215.821097,1101.75274 L212.094515,1094.89367 Z M199.942616,1107.58295 L201.214515,1098.32321 L201.997637,1092.5173 L209.691139,1092.5173 L215.091983,1102.31983 L203.914937,1109.50295 L203.669198,1109.66228 L199.942616,1107.58295 Z M215.90211,1102.72489 L217.090295,1102.1038 L223.004219,1099.16034 L216.309873,1104.10211 L208.61097,1107.55865 L215.90211,1102.72489 Z" id="design_inc"></path>
        </g>
    </g>
</svg>