<?xml version="1.0" encoding="UTF-8"?>
<svg width="27px" height="26px" viewBox="0 0 27 26" version="1.1" xmlns="http://www.w3.org/2000/svg" xmlns:xlink="http://www.w3.org/1999/xlink">
    <!-- Generator: Sketch 42 (36781) - http://www.bohemiancoding.com/sketch -->
    <title>dribbble</title>
    <desc>Created with Sketch.</desc>
    <defs></defs>
    <g id="Page-1" stroke="none" stroke-width="1" fill="none" fill-rule="evenodd">
        <g id="Desktop-HD-Copy-4" transform="translate(-651.000000, -856.000000)" fill="#222222">
            <path d="M676.792897,863.862247 C676.458323,863.099822 676.04029,862.364075 675.555634,861.676769 C675.076835,860.995079 674.524826,860.353406 673.918641,859.77211 C673.310259,859.189409 672.642576,858.661468 671.930967,858.200924 C671.214234,857.734763 670.446984,857.336701 669.651183,857.012355 C668.839275,856.685902 667.99003,856.43176 667.128339,856.263268 C666.243953,856.08916 665.334674,856 664.425396,856 C663.514654,856 662.605376,856.08916 661.720989,856.263268 C660.858566,856.43176 660.009321,856.685902 659.198145,857.012355 C658.402344,857.336701 657.635095,857.734763 656.916897,858.200924 C656.20602,858.661468 655.538337,859.189409 654.930688,859.77211 C654.324502,860.353406 653.773225,860.995079 653.293694,861.676769 C652.809039,862.364075 652.390273,863.099822 652.0557,863.862247 C651.711609,864.64082 651.44805,865.456601 651.27088,866.282913 C651.091513,867.128882 651,868.000827 651,868.872772 C651,869.748227 651.091513,870.620172 651.27088,871.467545 C651.44805,872.293857 651.711609,873.108234 652.0557,873.885402 C652.390273,874.647827 652.809039,875.386383 653.293694,876.073689 C653.773225,876.755378 654.324502,877.393541 654.930688,877.978348 C655.538337,878.559645 656.20602,879.086181 656.916897,879.54813 C657.635095,880.012886 658.402344,880.412352 659.198145,880.734593 C660.009321,881.064556 660.858566,881.315889 661.720989,881.483679 C662.605376,881.659893 663.514654,881.747649 664.425396,881.747649 C665.334674,881.747649 666.243953,881.659893 667.128339,881.483679 C667.99003,881.315889 668.839275,881.064556 669.651183,880.734593 C670.446984,880.412352 671.214234,880.012886 671.930967,879.54813 C672.642576,879.086181 673.310259,878.559645 673.918641,877.978348 C674.524826,877.393541 675.076835,876.755378 675.555634,876.073689 C676.04029,875.386383 676.458323,874.647827 676.792897,873.885402 C677.135523,873.108234 677.401278,872.293857 677.577716,871.467545 C677.757815,870.620172 677.849328,869.748227 677.849328,868.872772 C677.849328,868.000827 677.757815,867.128882 677.577716,866.282913 C677.401278,865.456601 677.135523,864.64082 676.792897,863.862247 L676.792897,863.862247 Z M664.425396,857.880087 C667.32674,857.880087 669.977703,858.918418 671.996857,860.624397 C671.968305,860.665116 670.336436,863.049275 666.007482,864.604313 C664.047629,861.151636 661.894499,858.40873 661.722454,858.190393 C662.589269,857.988905 663.494155,857.880087 664.425396,857.880087 L664.425396,857.880087 Z M661.678527,858.19952 C661.678527,858.200924 661.676331,858.202328 661.676331,858.202328 C661.676331,858.202328 661.662421,858.205838 661.641922,858.208646 C661.654368,858.205838 661.665349,858.204434 661.678527,858.19952 L661.678527,858.19952 Z M659.532719,858.932459 C659.685729,859.127629 661.805914,861.883873 663.790659,865.265644 C658.285207,866.66904 653.506738,866.612876 653.205109,866.608663 C653.948931,863.202321 656.334139,860.379382 659.532719,858.932459 L659.532719,858.932459 Z M655.89707,876.220417 C654.070461,874.272933 652.959121,871.697817 652.959121,868.872772 C652.959121,868.756231 652.964978,868.641095 652.968638,868.525959 C653.172164,868.530874 658.836484,868.653732 664.739471,866.959688 C665.068187,867.575385 665.382261,868.203719 665.669248,868.829245 C665.517701,868.868559 665.367619,868.912086 665.217537,868.960528 C659.030493,870.877122 655.891946,876.214801 655.891946,876.214801 C655.891946,876.214801 655.89707,876.219013 655.89707,876.220417 L655.89707,876.220417 Z M664.425396,879.868966 C661.717329,879.868966 659.230358,878.966131 657.267576,877.460236 C657.226578,877.430048 657.178259,877.393541 657.120423,877.34861 C657.178259,877.393541 657.226578,877.430048 657.267576,877.460236 C657.334198,877.510081 657.377393,877.540971 657.377393,877.540971 C657.377393,877.540971 659.575181,872.944656 666.375,870.672825 C666.400624,870.663699 666.42698,870.65738 666.452603,870.65036 C668.065437,874.668889 668.730923,878.035916 668.900772,878.997021 C667.525874,879.557256 666.011874,879.868966 664.425396,879.868966 L664.425396,879.868966 Z M670.832073,877.991687 C670.714936,877.328953 670.103626,874.101633 668.599144,870.13997 C672.301414,869.572012 675.508047,870.545755 675.74525,870.620172 C675.234971,873.683914 673.405433,876.325022 670.832073,877.991687 L670.832073,877.991687 Z M667.901445,868.403803 C667.819449,868.215654 667.738917,868.026802 667.653993,867.837249 C667.415325,867.298778 667.158355,866.765922 666.891136,866.242194 C671.419224,864.46952 673.256815,861.921784 673.278778,861.891596 C674.885755,863.763961 675.860191,866.155842 675.887279,868.763954 C675.72109,868.729554 671.840918,867.928516 667.901445,868.403803 L667.901445,868.403803 Z" id="dribbble"></path>
        </g>
    </g>
</svg>