<?xml version="1.0" encoding="UTF-8"?>
<svg width="45px" height="45px" viewBox="0 0 45 45" version="1.1" xmlns="http://www.w3.org/2000/svg" xmlns:xlink="http://www.w3.org/1999/xlink">
    <!-- Generator: Sketch 42 (36781) - http://www.bohemiancoding.com/sketch -->
    <title>ge</title>
    <desc>Created with Sketch.</desc>
    <defs></defs>
    <g id="Page-1" stroke="none" stroke-width="1" fill="none" fill-rule="evenodd">
        <g id="Desktop-HD-Copy-4" transform="translate(-299.000000, -1065.000000)" fill="#444444">
            <path d="M326.251343,1081.46076 C326.251343,1078.93088 327.963654,1076.47496 328.898969,1076.94058 C329.963404,1077.47346 328.102467,1079.8565 326.251343,1081.46076 M314.599275,1082.38494 C314.599275,1080.34821 316.607402,1076.48059 317.835422,1076.89092 C319.282671,1077.37438 316.633609,1081.27467 314.599275,1082.38494 M312.564462,1096.93845 C311.641233,1096.98045 311.023753,1096.38918 311.023753,1095.40432 C311.023753,1092.75334 314.699316,1090.22263 317.473191,1088.86657 C316.98136,1092.56547 315.731442,1096.79305 312.564462,1096.93845 M329.519321,1088.30797 C327.422282,1088.30797 325.819944,1089.84963 325.819944,1091.69932 C325.819944,1093.23955 326.745447,1094.47308 327.977655,1094.47308 C328.409532,1094.47308 328.841529,1094.22632 328.841529,1093.67238 C328.841529,1092.87026 327.778529,1092.67484 327.861219,1091.47542 C327.914112,1090.68634 328.657721,1090.15622 329.396782,1090.15622 C330.874906,1090.15622 331.567656,1091.5903 331.567656,1093.06938 C331.505908,1095.35095 329.826865,1096.93845 327.855595,1096.93845 C325.265528,1096.93845 323.601323,1094.47308 323.601323,1091.82126 C323.601323,1087.87513 326.189595,1086.33346 327.547094,1085.96322 C327.561095,1085.96322 331.09222,1086.59422 330.983324,1085.03532 C330.932824,1084.35142 329.915657,1084.0878 329.178032,1084.05884 C328.358075,1084.02569 327.534529,1084.32055 327.534529,1084.32055 C327.103968,1084.10467 326.807195,1083.68021 326.62207,1083.18659 C329.15003,1081.27467 330.93797,1079.42367 330.93797,1077.3295 C330.93797,1076.2178 330.197592,1075.23246 328.779781,1075.23246 C326.251343,1075.23246 324.341342,1078.43917 324.341342,1081.33546 C324.341342,1081.82957 324.341342,1082.32271 324.464719,1082.75507 C322.861903,1083.92613 321.668945,1084.65394 319.512192,1085.95017 C319.512192,1085.67996 319.567717,1084.98338 319.748653,1084.08038 C320.489151,1083.2773 321.505361,1082.07596 321.505361,1081.15082 C321.505361,1080.72122 321.259446,1080.34821 320.763068,1080.34821 C319.531817,1080.34821 318.607152,1082.19982 318.3604,1083.49557 C317.805505,1084.17432 316.695716,1085.03819 315.769735,1085.03819 C315.030195,1085.03819 314.784878,1084.35896 314.721694,1084.11257 C317.065486,1083.30997 319.963694,1080.1023 319.963694,1077.20469 C319.963694,1076.58996 319.716463,1075.23246 317.867133,1075.23246 C315.092421,1075.23246 312.750544,1079.36288 312.750544,1082.57007 C311.762814,1082.57007 311.393523,1081.5225 311.393523,1080.72122 C311.393523,1079.91909 311.701066,1079.11601 311.701066,1078.87021 C311.701066,1078.62382 311.57769,1078.31532 311.20792,1078.31532 C310.282896,1078.31532 309.72848,1079.548 309.72848,1080.96569 C309.791066,1082.93972 311.084544,1084.17432 312.811693,1084.29769 C313.057608,1085.46959 314.106128,1086.58022 315.399965,1086.58022 C316.201732,1086.58022 317.188503,1086.33346 317.867133,1085.71646 C317.805505,1086.14738 317.744236,1086.51859 317.68165,1086.88872 C314.969045,1088.30797 312.996818,1089.29522 311.20792,1090.89672 C309.791066,1092.19295 308.98894,1093.91782 308.98894,1095.27293 C308.98894,1097.12357 310.160357,1098.84893 312.564462,1098.84893 C315.399965,1098.84893 317.558154,1096.56868 318.607152,1093.4242 C319.100299,1091.94464 319.298467,1089.79207 319.422442,1087.81709 C322.257466,1086.21332 323.601323,1085.28494 325.080404,1084.23595 C325.265528,1084.54409 325.45149,1084.79084 325.697405,1084.97597 C324.40309,1085.65519 321.319758,1087.56651 321.319758,1092.06813 C321.319758,1095.27293 323.477947,1098.84893 327.73174,1098.84893 C331.246471,1098.84893 333.65249,1095.95168 333.65249,1093.1778 C333.65249,1090.6508 332.233721,1088.30797 329.519321,1088.30797 M340.11916,1093.60322 C340.111621,1093.62284 340.074285,1093.65084 340.005476,1093.62607 C339.953661,1093.60693 339.937745,1093.5812 339.93966,1093.54757 C339.942412,1093.51155 340.686619,1091.3183 340.680038,1088.80159 C340.671661,1086.08563 339.569411,1084.41975 338.153035,1084.41975 C337.287845,1084.41975 336.67216,1085.03819 336.67216,1085.96322 C336.67216,1087.62922 338.706973,1087.75259 338.706973,1091.3907 C338.706973,1092.87026 338.398472,1094.28747 337.904368,1095.82914 C335.624597,1103.5346 328.347904,1107.1106 321.259446,1107.1106 C317.990629,1107.1106 315.668736,1106.43795 314.975986,1106.12706 C314.947505,1106.11306 314.924649,1106.05969 314.946548,1106.00464 C314.962463,1105.96395 315.010091,1105.9326 315.037255,1105.94289 C315.317275,1106.0537 317.312359,1106.68052 319.777613,1106.68052 C322.491654,1106.68052 324.093153,1105.56893 324.093153,1104.21383 C324.093153,1103.35043 323.418113,1102.6736 322.553402,1102.6736 C320.888359,1102.6736 320.763068,1104.7686 317.188503,1104.7686 C315.646837,1104.7686 314.290774,1104.45831 312.68736,1103.96552 C305.041853,1101.62364 301.398959,1094.41001 301.405062,1087.25801 C301.407455,1083.77272 302.382499,1080.99896 302.399372,1080.9718 C302.409664,1080.95217 302.456334,1080.9335 302.509705,1080.95217 C302.564393,1080.9718 302.578873,1081.01859 302.574684,1081.03307 C302.484455,1081.32194 301.836101,1083.31044 301.836101,1085.77713 C301.836101,1088.49309 302.946249,1090.09495 304.364061,1090.09495 C305.165708,1090.09495 305.844936,1089.47938 305.844936,1088.61647 C305.844936,1086.94951 303.808687,1086.76534 303.808687,1083.18659 C303.808687,1081.64492 304.117188,1080.28694 304.610813,1078.68509 C306.954127,1071.04042 314.168235,1067.45604 321.259446,1067.40363 C324.554469,1067.37742 327.43724,1068.36431 327.547094,1068.45119 C327.566719,1068.46758 327.587781,1068.51054 327.566719,1068.56104 C327.542906,1068.61944 327.505091,1068.6265 327.48403,1068.62279 C327.450403,1068.61944 325.574986,1067.83562 322.73709,1067.83562 C320.086113,1067.83419 318.422985,1068.94481 318.422985,1070.36406 C318.422985,1071.16379 319.038192,1071.84159 319.963694,1071.84159 C321.62778,1071.84159 321.752113,1069.80821 325.327157,1069.80821 C326.867866,1069.80821 328.224408,1070.11479 329.826865,1070.60842 C337.535077,1072.95269 341.043226,1080.22759 341.11012,1087.25801 C341.144225,1090.86022 340.130289,1093.58359 340.11916,1093.60322 M321.259446,1066.04708 C309.543835,1066.04708 300.048041,1075.54144 300.048041,1087.25801 C300.048041,1098.97326 309.543835,1108.4657 321.259446,1108.4657 C332.972783,1108.4657 342.468098,1098.97326 342.468098,1087.25801 C342.468098,1075.60367 332.972783,1066.04708 321.259446,1066.04708 M321.259446,1109.51506 C308.98894,1109.51506 299,1099.58931 299,1087.25801 C299,1074.98571 308.98894,1065 321.259446,1065 C333.527199,1065 343.51566,1074.98571 343.51566,1087.25801 C343.51566,1099.58931 333.527199,1109.51506 321.259446,1109.51506" id="ge"></path>
        </g>
    </g>
</svg>