<?xml version="1.0" encoding="UTF-8"?>
<svg width="28px" height="24px" viewBox="0 0 28 24" version="1.1" xmlns="http://www.w3.org/2000/svg" xmlns:xlink="http://www.w3.org/1999/xlink">
    <!-- Generator: Sketch 42 (36781) - http://www.bohemiancoding.com/sketch -->
    <title>linkedin</title>
    <desc>Created with Sketch.</desc>
    <defs></defs>
    <g id="Page-1" stroke="none" stroke-width="1" fill="none" fill-rule="evenodd">
        <g id="Desktop-HD-Copy-4" transform="translate(-717.000000, -857.000000)" fill="#222222">
            <path d="M717.68086,864.549836 L722.944717,864.549836 L722.944717,880.543917 L717.68086,880.543917 L717.68086,864.549836 Z M737.326978,864.396087 C741.06805,864.396087 744.007464,866.696702 744.007464,871.651062 L744.007464,880.543917 L738.038587,880.543917 L738.038587,872.267461 C738.038587,870.100938 737.10515,868.622422 735.051587,868.622422 C733.481215,868.622422 732.60781,869.620034 732.20149,870.581841 C732.049212,870.927249 732.072639,871.408153 732.072639,871.889057 L732.072639,880.543917 L726.159403,880.543917 C726.159403,880.543917 726.235542,865.883027 726.159403,864.549836 L732.072639,864.549836 L732.072639,867.060363 C732.421855,865.962358 734.311425,864.396087 737.326978,864.396087 Z M720.215418,857 C722.157701,857 723.351769,858.194185 723.389839,859.772392 C723.389839,861.322516 722.157701,862.549698 720.178813,862.549698 L720.140743,862.549698 C718.235798,862.549698 717,861.326728 717,859.776604 C717,858.196994 718.271672,857 720.215418,857 Z" id="linkedin"></path>
        </g>
    </g>
</svg>