<?xml version="1.0" encoding="UTF-8"?>
<svg width="104px" height="41px" viewBox="0 0 104 41" version="1.1" xmlns="http://www.w3.org/2000/svg" xmlns:xlink="http://www.w3.org/1999/xlink">
    <!-- Generator: Sketch 42 (36781) - http://www.bohemiancoding.com/sketch -->
    <title>lockheed_martin</title>
    <desc>Created with Sketch.</desc>
    <defs></defs>
    <g id="Page-1" stroke="none" stroke-width="1" fill="none" fill-rule="evenodd">
        <g id="Desktop-HD-Copy-4" transform="translate(-415.000000, -1067.000000)" fill="#444444">
            <g id="lockheed_martin" transform="translate(415.000000, 1067.000000)">
                <path d="M72.0029143,13.601135 L79.9717455,13.730285 L70.6110701,18.8190683 L72.0029143,13.601135 Z M65.4184987,12.377285 L72.7586026,5.21116833 L71.1850961,12.377285 L65.4184987,12.377285 Z M85.678239,12.377285 L72.3263948,12.377285 L75.6287325,6.83333333e-05 L64.2704468,12.377285 L10.9934078,12.377285 C10.9934078,12.377285 10.7908104,12.3745517 10.7975636,12.496185 C10.7975636,12.582285 10.8786026,12.613035 10.9934078,12.613035 L63.2770442,13.459685 L56.7270701,20.6012017 C56.7270701,20.6012017 56.6048364,20.7160017 56.6797974,20.7836517 C56.7338234,20.829435 56.8006805,20.798685 56.8688883,20.7242017 L64.2900312,13.4747183 L70.9217195,13.5840517 L69.6656156,19.3356683 L48.2247325,30.9899183 C48.2247325,30.9899183 48.0626545,31.0644017 48.1234338,31.1607517 C48.1707065,31.224985 48.2443169,31.2133683 48.3192779,31.179885 L69.3894078,20.573185 L67.0055117,31.468935 C67.0055117,31.468935 66.9514857,31.6479683 67.0595377,31.6705183 C67.1473299,31.6896517 67.187174,31.630885 67.2216156,31.5372683 L70.2605766,20.136535 L85.678239,12.377285 L85.678239,12.377285 Z" id="Fill-1"></path>
                <polygon id="Fill-3" points="1.36618182 34.0291117 3.91080519 34.0291117 2.91267532 38.7810117 5.25267532 38.7810117 4.88462338 40.5289783 0 40.5289783"></polygon>
                <path d="M6.16402597,37.450425 C5.7378961,39.4785583 6.54828571,40.871875 8.76335065,40.871875 C10.9797662,40.871875 12.3756623,39.4785583 12.8017922,37.450425 C13.2265714,35.425025 12.4175325,34.028975 10.2004416,34.028975 C7.98605195,34.028975 6.58880519,35.425025 6.16402597,37.450425 M8.79779221,37.450425 C9.10506494,35.9833083 9.43664935,35.7236417 9.84454545,35.7236417 C10.2564935,35.7236417 10.4773247,35.9833083 10.168026,37.450425 C9.85197403,38.9544417 9.51093506,39.1792583 9.11992208,39.1792583 C8.72755844,39.1792583 8.48309091,38.9544417 8.79779221,37.450425" id="Fill-5"></path>
                <path d="M19.7120519,38.2965967 C19.3365714,40.0896633 17.756987,40.8727633 16.1645714,40.8727633 C13.9123636,40.8727633 13.1647792,39.4869633 13.596987,37.4246633 C13.9576104,35.3999467 15.4392727,34.02918 17.6111169,34.02918 C19.2305455,34.02918 20.4616623,34.6947467 20.0672727,36.60603 L17.7367273,36.60603 C17.8569351,35.8652967 17.6185455,35.7238467 17.3072208,35.7238467 C16.6494545,35.7238467 16.4434805,36.4058133 16.224,37.4513133 C16.0153247,38.4414633 15.9160519,39.1801467 16.5542338,39.1801467 C16.8864935,39.1801467 17.1478442,38.9833467 17.3274805,38.2965967 L19.7120519,38.2965967" id="Fill-7"></path>
                <polygon id="Fill-9" points="21.9562909 34.0291117 24.4455377 34.0291117 23.8600312 36.8184783 23.8769143 36.8184783 25.7725506 34.0291117 28.4603429 34.0291117 26.0987325 37.0890783 27.3345766 40.5289783 24.5758753 40.5289783 23.7114597 37.6118283 23.693226 37.6118283 23.0827325 40.5289783 20.5901091 40.5289783"></polygon>
                <polygon id="Fill-11" points="32.3842494 38.1337583 31.2990026 38.1337583 30.7945351 40.5288417 28.250587 40.5288417 29.6147429 34.028975 32.1593662 34.028975 31.6981195 36.2238417 32.7840416 36.2238417 33.244613 34.028975 35.788561 34.028975 34.4257558 40.5288417 31.8804571 40.5288417"></polygon>
                <polygon id="Fill-13" points="37.5053039 34.0291117 42.3899273 34.0291117 42.0340312 35.721045 39.5873299 35.721045 39.4401091 36.4132617 41.7017714 36.4132617 41.3465506 38.1045117 39.086239 38.1045117 38.9315896 38.8356783 41.4600052 38.8356783 41.1034338 40.5289783 36.1397974 40.5289783"></polygon>
                <polygon id="Fill-15" points="43.7540156 34.0291117 48.6420156 34.0291117 48.2847688 35.721045 45.8380675 35.721045 45.6915221 36.4132617 47.9518338 36.4132617 47.596613 38.1045117 45.3376519 38.1045117 45.1836779 38.8356783 47.7093922 38.8356783 47.3561974 40.5289783 42.3898597 40.5289783"></polygon>
                <path d="M49.2133403,40.5287733 L52.3846649,40.5287733 C54.358639,40.5287733 55.8814961,39.3131233 56.2887169,37.3512733 C56.694587,35.4229067 56.1705351,34.0289067 53.5968727,34.0289067 L50.5801974,34.0289067 L49.2133403,40.5287733 Z M52.7614961,35.50354 L53.0127169,35.50354 C53.4199377,35.50354 53.626587,35.6566067 53.7373403,35.9190067 C53.8480935,36.18824 53.8041974,36.6488067 53.6718338,37.27679 C53.5374442,37.9068233 53.3902234,38.36739 53.1612883,38.6366233 C52.9465351,38.8969733 52.6730286,39.0507233 52.2664831,39.0507233 L52.014587,39.0507233 L52.7614961,35.50354 L52.7614961,35.50354 Z" id="Fill-17"></path>
                <polygon id="Fill-19" points="67.8618909 35.8749317 67.8402805 35.8749317 65.9628779 40.5017817 63.643813 40.5017817 63.7167481 35.8749317 63.6951377 35.8749317 62.7233455 40.5017817 60.5805403 40.5017817 61.9352416 34.0292483 65.4550338 34.0292483 65.3436052 37.884615 65.3665662 37.884615 66.8752416 34.0292483 70.3950338 34.0292483 69.0329039 40.5017817 66.890774 40.5017817"></polygon>
                <path d="M70.1971636,40.5021233 L72.6269818,40.5021233 L73.1051117,39.4614067 L74.9386182,39.4614067 L74.9676571,40.5021233 L77.5892675,40.5021233 L76.8896312,34.0289067 L73.6062026,34.0289067 L70.1971636,40.5021233 Z M73.8196052,37.8849567 L74.8866182,35.44409 L74.9021506,35.44409 L74.9021506,37.8849567 L73.8196052,37.8849567 Z" id="Fill-21"></path>
                <path d="M78.6466909,40.5021233 L81.1352623,40.5021233 L81.6140675,38.1965567 L81.9078338,38.1965567 C82.3204571,38.1965567 82.4453922,38.3216067 82.438639,38.64414 C82.4021714,39.2010567 82.3137039,40.0169567 82.3643532,40.5021233 L84.8461714,40.5021233 C84.7577039,39.5249567 84.9636779,38.6106567 84.9413922,38.05374 C84.9197818,37.5603733 84.6401974,37.28294 84.0357818,37.2289567 L84.0357818,37.2118733 C85.0453922,36.9788567 85.4715221,36.41169 85.6268468,35.6682233 C85.8841455,34.4505233 85.1696519,34.0289067 83.7933403,34.0289067 L80.0094961,34.0289067 L78.6466909,40.5021233 Z M81.9233662,36.72534 L82.1799896,35.49739 L82.4163532,35.49739 C82.9093403,35.49739 83.2118857,35.5964733 83.1159896,36.0720733 C83.0119896,36.5565567 82.6230026,36.72534 82.1367688,36.72534 L81.9233662,36.72534 L81.9233662,36.72534 Z" id="Fill-23"></path>
                <polygon id="Fill-25" points="87.9574597 35.766145 86.3812519 35.766145 86.7493039 34.0291117 92.4335117 34.0291117 92.0728883 35.766145 90.4899273 35.766145 89.4958494 40.5023283 86.9627065 40.5023283"></polygon>
                <polygon id="Fill-27" points="93.5532675 34.0291117 96.0931636 34.0291117 94.7310338 40.5023283 92.1985662 40.5023283"></polygon>
                <polygon id="Fill-29" points="97.4548208 34.0291117 100.495808 34.0291117 101.025262 37.9459783 101.047548 37.9459783 101.865366 34.0291117 103.926457 34.0291117 102.565003 40.5023283 99.5233403 40.5023283 99.000639 36.5560783 98.9797039 36.5560783 98.1470286 40.5023283 96.0926909 40.5023283"></polygon>
            </g>
        </g>
    </g>
</svg>