<?xml version="1.0" encoding="UTF-8"?>
<svg width="92px" height="40px" viewBox="0 0 92 40" version="1.1" xmlns="http://www.w3.org/2000/svg" xmlns:xlink="http://www.w3.org/1999/xlink">
    <!-- Generator: Sketch 42 (36781) - http://www.bohemiancoding.com/sketch -->
    <title>p&amp;g</title>
    <desc>Created with Sketch.</desc>
    <defs></defs>
    <g id="Page-1" stroke="none" stroke-width="1" fill="none" fill-rule="evenodd">
        <g id="Desktop-HD-Copy-4" transform="translate(-590.000000, -1067.000000)" fill="#444444">
            <g id="p&amp;g" transform="translate(590.000000, 1067.000000)">
                <path d="M24.8774086,3.45164135 C26.7303418,3.45164135 31.8817079,3.69889152 28.5611476,13.4397789 C25.0765556,23.6650649 17.3603297,21.5605522 17.3603297,21.5605522 L23.0461217,3.45164135 L24.8774086,3.45164135 Z M38.6825309,14.0944627 C43.0276882,3.36409362 34.8972942,0.455296291 29.5919981,0.459144543 L12.0434888,0.459144543 C13.5072676,1.46546239 13.2657898,2.79214719 12.9805381,3.6113438 L2.75669517,36.289736 C2.34685636,37.5841917 0.821024521,38.9407005 -9.6206295e-05,39.1571646 L14.2071684,39.1523543 C13.4274164,39.009488 12.306613,37.9016725 12.7097174,36.3806509 L16.4227994,24.5626697 C16.4227994,24.5626697 33.5104804,26.8682535 38.6825309,14.0944627 L38.6825309,14.0944627 Z" id="Fill-1"></path>
                <path d="M44.4268163,34.129568 C43.8630474,34.481683 41.6498216,35.6044105 39.562145,35.8030765 C37.6380191,35.9815391 34.4343495,35.2354593 34.4406029,31.3737386 C34.4444512,28.0762679 38.0324649,25.6653381 39.9686166,24.8273813 C40.7748254,28.0247975 42.5392488,31.6286853 44.4268163,34.129568 M50.0375674,13.3162981 C49.5406619,16.432901 45.5120233,19.5716314 44.5254278,20.0002304 C44.3508133,18.2487948 44.4268163,15.4886362 45.8982916,13.2301935 C46.8694941,11.7361097 48.1480758,11.0766156 49.1880659,11.4383512 C50.014959,11.7202357 50.1154945,12.4932533 50.0375674,13.3162981 M50.0394916,39.1568279 L59.5894094,39.1520176 C56.5324544,38.1711944 52.0097965,35.2821194 50.2131439,33.2228236 C51.6687452,31.6306094 53.4687649,29.6357719 53.7968284,25.571537 L48.838837,25.571537 C48.838837,25.571537 49.7932034,26.1175077 49.7932034,27.2787177 C49.7932034,28.3571903 49.3650854,29.8368431 48.5266476,30.890302 C47.0772997,28.7386482 45.5240491,26.2829825 44.9819266,22.683424 C46.9214455,21.7131835 49.6570715,20.6693452 51.8313338,18.7673468 C53.8877434,16.9610736 54.3649266,15.2611084 54.3981178,14.1508877 L54.3981178,14.0099455 C54.3981178,12.8525838 53.943062,11.7596803 53.1079913,10.9284579 C51.6730745,9.5060478 49.403568,8.92448074 47.0340069,9.36847279 C45.1219068,9.72828434 43.4940963,10.7442228 42.680191,11.5032905 C39.7891919,14.200434 39.4173545,18.6653681 39.4173545,20.6794469 C39.4173545,21.1710611 39.439001,21.5438604 39.4587232,21.7608056 C39.2942105,21.826707 38.9974141,21.9392683 38.9974141,21.9392683 C36.8929014,22.713729 31.2643521,24.2212816 29.2478681,28.8468803 C28.9905163,29.4294094 28.6268565,30.6964463 28.6268565,32.1760991 C28.6268565,33.4455412 28.894791,34.863141 29.7178359,36.1571156 C31.1363977,38.3722656 33.5502136,39.7759154 37.3984654,39.7095331 C41.5911358,39.6397835 45.7130945,36.7771652 46.4534019,36.2557271 C47.1831267,36.9282091 49.0577063,38.6907084 50.0394916,39.1568279" id="Fill-4"></path>
                <path d="M79.0826808,3.49199989 C84.7593332,2.13260494 89.4445798,6.57252545 89.8664444,6.87798044 L91.4908877,1.71891787 C89.2425466,1.04547381 72.9485674,-4.4734003 61.4384463,8.67992434 C54.3619923,16.7694307 52.6240256,33.3395219 61.6039211,37.7823286 C71.2235886,42.5363626 81.8346619,37.0506797 82.6144139,36.6701838 L87.0100795,22.6918902 C87.4819714,21.0034697 88.5565957,19.9004645 90.4518597,19.1976775 L75.1872879,19.1976775 C77.4159067,20.1270303 77.2533181,21.8058302 77.0719692,22.4917811 L72.6892915,36.4700747 C72.1038762,36.5874464 59.8385356,39.6463255 66.7047789,18.1793339 C68.1863558,13.5720144 72.3246696,5.1183673 79.0826808,3.49199989" id="Fill-7"></path>
            </g>
        </g>
    </g>
</svg>