<?xml version="1.0" encoding="UTF-8"?>
<svg width="43px" height="41px" viewBox="0 0 43 41" version="1.1" xmlns="http://www.w3.org/2000/svg" xmlns:xlink="http://www.w3.org/1999/xlink">
    <!-- Generator: Sketch 42 (36781) - http://www.bohemiancoding.com/sketch -->
    <title>privacy_star</title>
    <desc>Created with Sketch.</desc>
    <defs></defs>
    <g id="Page-1" stroke="none" stroke-width="1" fill="none" fill-rule="evenodd">
        <g id="Desktop-HD-Copy-4" transform="translate(-1052.000000, -1066.000000)" fill-rule="nonzero" fill="#444444">
            <g id="privacy_star" transform="translate(1052.000000, 1066.000000)">
                <path d="M42.8031037,15.3668087 L26.8210446,15.3668087 L21.4129741,0 L16.0033807,15.3668087 L0,15.3668087 L12.6970103,25.5250475 L8.13723475,41.0377266 L17.857598,34.3964181 L17.857598,21.3299339 L14.6723039,21.3299339 L15.8053944,17.7755813 L17.857598,17.7755813 L21.3185499,17.7755813 L21.3231188,17.7755813 L22.3701615,17.7755813 C23.1164174,17.7755813 23.8124152,17.9199244 24.453586,18.2070831 C25.0970413,18.4942418 25.6574947,18.8814478 26.1349462,19.3702285 C26.6131591,19.8574819 26.9855255,20.4279807 27.2558529,21.0817249 C27.5246573,21.7347054 27.6586788,22.4273994 27.6586788,23.1590431 C27.6586788,23.8738849 27.5246573,24.552832 27.2558529,25.1974116 C26.9855255,25.8412275 26.6131591,26.4040891 26.1349462,26.8821778 C25.6574947,27.3617939 25.0970413,27.7405989 24.453586,28.018593 C23.8124152,28.2973508 23.1164174,28.4371115 22.3701615,28.4371115 L21.3231188,28.4371115 L21.3231188,31.8295555 L21.3124581,31.8379564 L34.7976059,41.0377266 L30.1426447,25.5487228 L42.8031037,15.3668087 Z" id="Fill-3"></path>
                <path d="M24.0674205,24.3549214 C24.4230343,24.0066651 24.6012219,23.6057121 24.6012219,23.1528262 C24.6012219,22.6480073 24.4230343,22.2165055 24.0674205,21.8590846 C23.7110453,21.5024274 23.2815674,21.323717 22.777464,21.323717 L21.7311828,21.323717 L21.7311828,24.8773058 L22.777464,24.8773058 C23.2815674,24.8773058 23.7110453,24.7031777 24.0674205,24.3549214" id="Fill-1"></path>
            </g>
        </g>
    </g>
</svg>