<?xml version="1.0" encoding="UTF-8"?>
<svg width="73px" height="47px" viewBox="0 0 73 47" version="1.1" xmlns="http://www.w3.org/2000/svg" xmlns:xlink="http://www.w3.org/1999/xlink">
    <!-- Generator: Sketch 42 (36781) - http://www.bohemiancoding.com/sketch -->
    <title>seti</title>
    <desc>Created with Sketch.</desc>
    <defs></defs>
    <g id="Page-1" stroke="none" stroke-width="1" fill="none" fill-rule="evenodd">
        <g id="Desktop-HD-Copy-4" transform="translate(-752.000000, -1064.000000)" fill="#444444">
            <g id="seti" transform="translate(752.000000, 1064.000000)">
                <path d="M4.70222845,4.30878853 C4.70222845,5.60802245 3.64975612,6.6611201 2.35096742,6.6611201 C1.05250496,6.6611201 3.26246845e-05,5.60802245 3.26246845e-05,4.30878853 C3.26246845e-05,3.0095546 1.05250496,1.95613051 2.35096742,1.95613051 C3.64975612,1.95613051 4.70222845,3.0095546 4.70222845,4.30878853 Z" id="Fill-1"></path>
                <path d="M8.58309784,15.4144638 C8.58309784,14.1155564 7.53062551,13.0621323 6.2318368,13.0621323 C4.93337434,13.0621323 3.88090201,14.1155564 3.88090201,15.4144638 C3.88090201,16.7136978 4.93337434,17.7671218 6.2318368,17.7671218 C7.53062551,17.7671218 8.58309784,16.7136978 8.58309784,15.4144638" id="Fill-3"></path>
                <path d="M20.603402,10.7234786 C21.0203454,9.10270056 20.8366685,7.655589 20.1936359,7.49008357 C19.5499509,7.32392527 18.6909429,8.50302902 18.274652,10.1228277 C17.8577085,11.7432793 18.0413855,13.1910437 18.6847443,13.3575284 C19.3284293,13.5227074 20.187111,12.3429508 20.603402,10.7234786" id="Fill-5"></path>
                <path d="M12.110022,26.2960376 C12.110022,24.9964772 11.0575497,23.9430532 9.75876098,23.9430532 C8.46029853,23.9430532 7.40782619,24.9964772 7.40782619,26.2960376 C7.40782619,27.595598 8.46029853,28.6490221 9.75876098,28.6490221 C11.0575497,28.6490221 12.110022,27.595598 12.110022,26.2960376" id="Fill-7"></path>
                <path d="M19.6842667,4.45542568 C20.4770466,3.4261582 21.2453579,3.15390667 21.0111127,2.60777141 C20.7732787,2.05347513 19.293423,1.93432428 18.2272483,3.05009854 C17.1995707,4.12539415 17.688941,6.17283012 18.2869515,6.25248165 C19.0598303,6.35596335 18.8911606,5.4850196 19.6842667,4.45542568" id="Fill-9"></path>
                <path d="M16.4483874,19.7426756 C16.1130056,18.4584579 16.4575223,17.7092766 15.8745192,17.5036189 C15.2840124,17.2946969 14.288307,18.5831583 14.3571451,19.9088339 C14.4396855,21.4963149 16.2966826,22.4851038 16.7863791,22.0943543 C17.4212555,21.5890241 16.7958403,21.0739007 16.4483874,19.7426756" id="Fill-11"></path>
                <path d="M56.3948345,11.5035739 C56.6816055,12.7992169 56.3090316,13.5359936 56.883226,13.7625434 C57.4665554,13.9939898 58.5098928,12.743722 58.490318,11.4164142 C58.467807,9.82664806 56.6496333,8.76898024 56.1452556,9.14046974 C55.492762,9.62131687 56.0976236,10.1605969 56.3948345,11.5035739" id="Fill-13"></path>
                <path d="M55.3673527,16.5273654 C55.7839699,14.9424959 55.0975465,13.3873325 53.8326875,13.0530572 C52.5665235,12.718782 51.2021591,13.7327067 50.7845632,15.3179027 C50.3672935,16.9027722 51.0537168,18.4576092 52.3192284,18.7918844 C53.5847399,19.1261597 54.9494305,18.1125614 55.3673527,16.5273654" id="Fill-15"></path>
                <path d="M53.2257052,7.2563194 C52.4737062,5.76220039 51.2280958,4.87069088 50.4447771,5.26601055 C49.6621109,5.66035089 49.6376424,7.19298991 50.3899676,8.68710892 C51.1426191,10.1818808 52.3879033,11.072411 53.171222,10.6770913 C53.9535619,10.282751 53.9790092,8.75109129 53.2257052,7.2563194" id="Fill-17"></path>
                <path d="M50.1974167,21.5285346 C51.4293248,19.8800092 51.2091082,17.6318122 49.7038052,16.5046125 C48.198176,15.3780657 45.9787187,15.8004799 44.7468106,17.4490054 C43.5149025,19.0978573 43.7360979,21.3467072 45.2414009,22.4735804 C46.7470301,23.6004537 48.9655086,23.177713 50.1974167,21.5285346" id="Fill-19"></path>
                <path d="M46.5644297,31.4948667 C47.9663124,30.3519978 48.5372444,28.7318727 47.8390761,27.8749659 C47.1425391,27.0180591 45.4405093,27.2495056 44.0373216,28.3923744 C42.6357651,29.5355697 42.0645069,31.1563477 42.7620227,32.0122752 C43.4601909,32.869182 45.161242,32.6380619 46.5644297,31.4948667" id="Fill-21"></path>
                <path d="M45.4945684,2.91981606 C43.7537152,1.73548926 41.7502333,1.64735027 41.0197666,2.721993 C40.2902787,3.7963093 41.1124207,5.62666222 42.8522952,6.81066258 C44.5941271,7.99531582 46.5979352,8.08410769 47.3280757,7.0097914 C48.0582161,5.93514866 47.2354216,4.1044693 45.4945684,2.91981606" id="Fill-23"></path>
                <path d="M48.6155763,1.58408607 C47.4629461,0.740563337 46.3931827,0.239803327 46.2294068,0.464068077 C46.0659571,0.688985709 46.8688506,1.55437996 48.0211545,2.39757625 C49.1747634,3.24109898 50.2438743,3.74218543 50.4083027,3.51824712 C50.5724049,3.29267661 49.7691851,2.42728235 48.6155763,1.58408607" id="Fill-25"></path>
                <path d="M24.15946,1.50374901 C23.1464635,2.51147141 22.4848349,3.48981414 22.680583,3.68731075 C22.8769836,3.88415449 23.8567029,3.22572362 24.8693731,2.21898055 C25.8823696,1.21093172 26.5446507,0.232588988 26.3489026,0.0350923736 C26.152502,-0.162404241 25.1724565,0.495373739 24.15946,1.50374901" id="Fill-27"></path>
                <path d="M27.8804032,32.510848 C29.1175312,33.2247738 30.2352529,33.6063829 30.3735816,33.3661226 C30.5125628,33.1248829 29.6202776,32.3518714 28.3838021,31.6379456 C27.1456953,30.9243463 26.0279736,30.5424107 25.8893187,30.782671 C25.7500113,31.0239107 26.6422964,31.7975751 27.8804032,32.510848" id="Fill-29"></path>
                <path d="M40.5572139,3.25327522 C40.5572139,1.55382501 38.726969,0.176571766 36.4686883,0.176571766 C34.2104077,0.176571766 32.3804891,1.55382501 32.3804891,3.25327522 C32.3804891,4.95239898 34.2104077,6.32965223 36.4686883,6.32965223 C38.726969,6.32965223 40.5572139,4.95239898 40.5572139,3.25327522" id="Fill-31"></path>
                <path d="M29.9237524,11.1630962 C29.9237524,9.16984941 28.2827308,7.5546209 26.2573904,7.5546209 C24.2330287,7.5546209 22.5913545,9.16984941 22.5913545,11.1630962 C22.5913545,13.1569959 24.2330287,14.7725509 26.2573904,14.7725509 C28.2827308,14.7725509 29.9237524,13.1569959 29.9237524,11.1630962" id="Fill-33"></path>
                <path d="M24.2606291,25.3007853 C22.959883,24.0384391 21.3746495,23.5631415 20.7195459,24.239853 C20.0650947,24.9149324 20.5877421,26.4854385 21.8884883,27.7477846 C23.1892345,29.0104572 24.7747942,29.4851019 25.4298979,28.8103491 C26.0846753,28.1346168 25.5620278,26.5631314 24.2606291,25.3007853" id="Fill-35"></path>
                <path d="M33.5814364,17.7135856 C31.0416046,15.4712645 27.5165074,15.3171845 25.7068162,17.3695171 C23.8961462,19.4218497 24.4882842,22.9023603 27.0281159,25.1440284 C29.5679476,27.3856966 33.0920661,27.5394502 34.9020836,25.4871176 C36.7117749,23.4354379 36.1212681,19.9559066 33.5814364,17.7135856" id="Fill-37"></path>
                <path d="M67.070186,19.8258853 C67.070186,18.5263249 66.0173874,17.4729009 64.7195774,17.4729009 C63.421115,17.4729009 62.3686427,18.5263249 62.3686427,19.8258853 C62.3686427,21.1254457 63.421115,22.1788698 64.7195774,22.1788698 C66.0173874,22.1788698 67.070186,21.1254457 67.070186,19.8258853" id="Fill-39"></path>
                <path d="M72.6546185,4.38657934 C72.6546185,3.08701898 71.60182,2.03392133 70.30401,2.03392133 C69.0055475,2.03392133 67.9530752,3.08701898 67.9530752,4.38657934 C67.9530752,5.68646615 69.0055475,6.7395638 70.30401,6.7395638 C71.60182,6.7395638 72.6546185,5.68646615 72.6546185,4.38657934" id="Fill-41"></path>
                <path d="M72.3627581,12.7678786 C72.3627581,11.7924739 71.5716095,11.002161 70.5984152,11.002161 C69.6245683,11.002161 68.8340722,11.7924739 68.8340722,12.7678786 C68.8340722,13.7432834 69.6245683,14.5332699 70.5984152,14.5332699 C71.5716095,14.5332699 72.3627581,13.7432834 72.3627581,12.7678786" id="Fill-43"></path>
                <path d="M72.5093082,26.5896384 C72.5093082,25.6142336 71.7184858,24.8245736 70.7449652,24.8245736 C69.7714446,24.8245736 68.9806223,25.6142336 68.9806223,26.5896384 C68.9806223,27.5653696 69.7714446,28.3550296 70.7449652,28.3550296 C71.7184858,28.3550296 72.5093082,27.5653696 72.5093082,26.5896384" id="Fill-45"></path>
                <path d="M60.7526441,3.94536211 C60.7526441,2.96995735 59.9614955,2.17997089 58.9883012,2.17997089 C58.0147806,2.17997089 57.2239582,2.96995735 57.2239582,3.94536211 C57.2239582,4.92076688 58.0147806,5.71075334 58.9883012,5.71075334 C59.9614955,5.71075334 60.7526441,4.92076688 60.7526441,3.94536211" id="Fill-47"></path>
                <path d="M3.7892919,26.4430012 C3.7892919,25.5191741 3.04055538,24.7696663 2.1172768,24.7696663 C1.19399822,24.7696663 0.445261699,25.5191741 0.445261699,26.4430012 C0.445261699,27.3668283 1.19399822,28.1163362 2.1172768,28.1163362 C3.04055538,28.1163362 3.7892919,27.3668283 3.7892919,26.4430012" id="Fill-49"></path>
                <path d="M61.3959051,26.2960376 C61.3959051,24.9661183 60.3183117,23.8869054 58.9888558,23.8869054 C57.6597261,23.8869054 56.5811541,24.9661183 56.5811541,26.2960376 C56.5811541,27.6262834 57.6597261,28.7051699 58.9888558,28.7051699 C60.3183117,28.7051699 61.3959051,27.6262834 61.3959051,26.2960376" id="Fill-51"></path>
                <path d="M11.5776198,9.53343904 C11.5776198,8.52865461 10.7629814,7.71320578 9.75879361,7.71320578 C8.75460581,7.71320578 7.94029367,8.52865461 7.94029367,9.53343904 C7.94029367,10.5382235 8.75460581,11.3536723 9.75879361,11.3536723 C10.7629814,11.3536723 11.5776198,10.5382235 11.5776198,9.53343904" id="Fill-53"></path>
                <polygon id="Fill-55" points="6.51107148 38.4600989 11.0400302 38.4600989 11.0400302 39.587625 7.73025595 39.587625 7.73025595 41.5998054 11.0374203 41.5998054 11.0374203 42.7900081 7.73025595 42.7900081 7.73025595 44.9419051 11.0400302 44.9419051 11.0400302 46.1474506 6.51107148 46.1474506"></polygon>
                <polygon id="Fill-57" points="69.0993435 39.9622484 72.7428683 39.9622484 72.7428683 40.8691006 70.0797153 40.8691006 70.0797153 42.4885728 72.7405846 42.4885728 72.7405846 43.4460233 70.0797153 43.4460233 70.0797153 45.1781176 72.7428683 45.1781176 72.7428683 46.14732 69.0993435 46.14732"></polygon>
                <polygon id="Fill-59" points="12.6579862 38.4600989 17.9634125 38.4600989 17.9634125 39.587625 15.867929 39.587625 15.867929 46.1474506 14.7365049 46.1474506 14.7365049 39.587625 12.6579862 39.587625"></polygon>
                <polygon id="Fill-61" points="42.4729353 39.9660677 46.7386129 39.9660677 46.7386129 40.8729199 45.0542004 40.8729199 45.0542004 46.1475485 44.1446242 46.1475485 44.1446242 40.8729199 42.4729353 40.8729199"></polygon>
                <polygon id="Fill-63" points="50.9885001 39.9660677 55.2541776 39.9660677 55.2541776 40.8729199 53.5694389 40.8729199 53.5694389 46.1475485 52.6601889 46.1475485 52.6601889 40.8729199 50.9885001 40.8729199"></polygon>
                <polygon id="Fill-65" points="63.2775664 39.9660677 67.5432439 39.9660677 67.5432439 40.8729199 65.8588314 40.8729199 65.8588314 46.1475485 64.9492552 46.1475485 64.9492552 40.8729199 63.2775664 40.8729199"></polygon>
                <polygon id="Fill-67" points="20.0945221 46.1476138 21.2357336 46.1476138 21.2357336 38.4602621 20.0945221 38.4602621"></polygon>
                <polygon id="Fill-69" points="27.4703109 46.1476138 28.6115224 46.1476138 28.6115224 38.4602621 27.4703109 38.4602621"></polygon>
                <polygon id="Fill-70" points="48.4049187 46.1476138 49.3223248 46.1476138 49.3223248 39.966133 48.4049187 39.966133"></polygon>
                <polygon id="Fill-71" points="30.8398862 39.9749796 31.8235205 39.9749796 34.4941772 44.196184 34.4941772 39.9749796 35.3936397 39.9749796 35.3936397 46.1479729 34.4909147 46.1479729 31.7481574 41.7655067 31.7481574 46.1479729 30.8398862 46.1479729"></polygon>
                <path d="M56.8338649,39.9660677 L57.7949881,39.9660677 L57.7949881,43.6688844 C57.7949881,44.130798 57.9019971,44.5548444 58.116015,44.7843322 C58.3303592,45.0151258 59.0595209,45.1290536 59.2193818,45.1290536 C59.4552583,45.1290536 59.740398,45.082699 59.9230963,44.9906427 C60.1044895,44.8976071 60.3459122,44.7797621 60.5162131,44.5385224 C60.652258,44.3452695 60.757962,43.9884698 60.757962,43.6688844 L60.6803152,39.9660677 L61.6525308,39.9660677 L61.6525308,43.8438566 C61.6525308,44.5835712 61.4499315,45.1535366 61.0453854,45.5521207 C60.6414918,45.9516841 60.0496801,46.1511394 59.2706026,46.1511394 C58.8216869,46.1511394 58.402786,46.0796489 58.0148785,45.9373207 C57.8086905,45.8606072 57.6367584,45.7600634 57.4990822,45.636016 C57.3088803,45.4610438 57.1509768,45.2387377 57.0237405,44.9677919 C56.8968305,44.6968461 56.8338649,44.3325383 56.8338649,43.8751949 L56.8338649,39.9660677 Z" id="Fill-72"></path>
                <path d="M0.148638064,44.913668 C1.12085367,44.938804 1.36064511,44.9355395 1.9518044,44.9355395 C2.37788278,44.9355395 2.7638328,44.8483799 3.06724237,44.5927768 C3.37065194,44.3368473 3.39185799,44.1344541 3.39185799,43.7851626 C3.39185799,43.5638358 3.33867975,43.493651 3.16903139,43.2716714 C2.99938303,43.0532826 2.68716479,42.9210741 2.07675694,42.7183544 C1.61870636,42.5708032 1.26440229,42.4183554 1.01188723,42.2632961 C0.759372165,42.1072575 0.552531663,41.9015998 0.391039473,41.6453439 C0.229873529,41.389088 0.154836754,41.0936591 0.148638064,40.7574252 C0.13460945,40.0023679 0.242923403,39.5084632 0.706520175,39.1134699 C1.17011695,38.7174974 1.51071866,38.5193479 2.37788278,38.463853 C2.94065859,38.4282709 3.38696428,38.463853 4.22541868,38.4700554 L4.22541868,39.5939906 C3.50539189,39.5518798 3.20524479,39.5518798 2.71424328,39.5518798 C2.34591059,39.5518798 1.87089518,39.6677662 1.62947251,39.8685272 C1.38804984,40.0679825 1.34498526,40.3177096 1.34498526,40.6141178 C1.34498526,40.840994 1.43144067,40.9771198 1.605004,41.1674347 C1.77465236,41.3590554 2.15472994,41.4782063 2.74621547,41.6717856 C3.42415642,41.8944181 3.91907289,42.2352222 4.22998614,42.5463202 C4.54187813,42.8577446 4.69717163,43.430648 4.69717163,43.9640521 C4.69717163,44.6048551 4.43389042,45.1496846 3.90667551,45.6031107 C3.37978685,46.0552311 2.99840429,46.1198664 2.12993518,46.1512047 C1.52083231,46.1730762 1.25363614,46.1512047 0.148638064,46.1512047 L0.148638064,44.913668 Z" id="Fill-73"></path>
                <path d="M37.4683739,45.1556259 C38.2503876,45.1755387 38.4422208,45.1732537 38.9159312,45.1732537 C39.2581641,45.1732537 39.5684249,45.1033953 39.8134363,44.8970848 C40.0571427,44.6914272 40.0741075,44.5285333 40.0741075,44.2481208 C40.0741075,44.0692313 40.0307167,44.012757 39.8956505,43.8338675 C39.7589531,43.6582424 39.507743,43.5514963 39.0164152,43.3889289 C38.6490613,43.2701045 38.3655528,43.1476892 38.1629535,43.0229889 C37.9597017,42.8973092 37.7933158,42.7321302 37.6634696,42.5258197 C37.5332971,42.3195092 37.4735939,42.0821868 37.4683739,41.811241 C37.4569553,41.2040614 37.5443895,40.8067831 37.9169634,40.4888298 C38.290516,40.1698973 38.5626059,40.0109207 39.2581641,39.9661983 C39.7116473,39.9371451 40.070845,39.9661983 40.7451973,39.970442 L40.7451973,40.8753356 C40.1657829,40.8417122 39.9243602,40.8417122 39.5296015,40.8417122 C39.2323906,40.8417122 38.8506818,40.9344214 38.6575437,41.0960095 C38.4644056,41.2566183 38.4301496,41.4573793 38.4301496,41.6963339 C38.4301496,41.8791407 38.499314,41.9888248 38.6386214,42.141599 C38.7740138,42.2950261 39.0793809,42.3909997 39.5550488,42.5473648 C40.1002073,42.7262543 40.4985547,43.0004645 40.7481335,43.2511709 C40.9990173,43.5015509 41.1246224,43.9624852 41.1246224,44.3917547 C41.1246224,44.9068781 40.9125619,45.3452879 40.4887673,45.7102486 C40.0643201,46.0742299 39.7579743,46.126134 39.0591536,46.1512699 C38.570762,46.1688977 38.3573966,46.1512699 37.4683739,46.1512699 L37.4683739,45.1556259 Z" id="Fill-74"></path>
            </g>
        </g>
    </g>
</svg>