<?xml version="1.0" encoding="UTF-8"?>
<svg width="28px" height="22px" viewBox="0 0 28 22" version="1.1" xmlns="http://www.w3.org/2000/svg" xmlns:xlink="http://www.w3.org/1999/xlink">
    <!-- Generator: Sketch 42 (36781) - http://www.bohemiancoding.com/sketch -->
    <title>twitter</title>
    <desc>Created with Sketch.</desc>
    <defs></defs>
    <g id="Page-1" stroke="none" stroke-width="1" fill="none" fill-rule="evenodd">
        <g id="Desktop-HD-Copy-4" transform="translate(-783.000000, -858.000000)" fill="#222222">
            <path d="M809.663373,858.405082 C808.57546,859.038331 807.373339,859.498875 806.08849,859.745294 C805.065003,858.671159 803.602251,858 801.982828,858 C798.87869,858 796.359507,860.476829 796.359507,863.531445 C796.359507,863.965311 796.407826,864.385838 796.504464,864.790921 C791.829222,864.559946 787.684759,862.360427 784.908606,859.009547 C784.42395,859.82954 784.147213,860.780816 784.147213,861.793873 C784.147213,863.711871 785.139952,865.405214 786.65029,866.397209 C785.729299,866.370531 784.860286,866.119197 784.100358,865.707797 L784.100358,865.775193 C784.100358,868.456319 786.039712,870.693047 788.615268,871.199224 C788.143791,871.329103 787.645957,871.394394 787.13275,871.394394 C786.770356,871.394394 786.416748,871.360696 786.074121,871.296107 C786.790123,873.492819 788.866381,875.092789 791.32846,875.135614 C789.403749,876.619745 786.976811,877.504327 784.341954,877.504327 C783.888047,877.504327 783.439265,877.479053 783,877.428506 C785.489167,878.995479 788.447616,879.911653 791.6235,879.911653 C801.971846,879.911653 807.628845,871.484256 807.628845,864.173819 C807.628845,863.933017 807.624452,863.692916 807.614935,863.457027 C808.713829,862.677051 809.668498,861.703309 810.41964,860.594071 C809.41226,861.033554 808.327276,861.331223 807.18958,861.464612 C808.351435,860.780816 809.243143,859.696853 809.663373,858.405082" id="twitter"></path>
        </g>
    </g>
</svg>